<svg width="64" height="64" viewBox="0 0 64 64" fill="none" xmlns="http://www.w3.org/2000/svg">
<path d="M32 0C14.327 0 0 14.327 0 32C0 49.673 14.327 64 32 64C49.673 64 64 49.673 64 32C64 14.327 49.673 0 32 0ZM44.7882 46.9832C44.1498 47.9048 42.9429 48.2038 41.9859 47.5998C35.9203 43.8368 28.1035 42.9152 22.0775 44.5137C21.0809 44.7863 20.0843 44.1823 19.798 43.2203C19.5118 42.2582 20.1434 41.3013 21.14 41.0287C28.0282 39.2168 36.7318 40.2752 43.62 44.5523C44.5374 45.0915 44.9003 46.1984 44.7882 46.9832ZM48.4582 39.5907C47.8938 40.7263 46.4306 41.0998 45.3594 40.4958C38.0451 36.1832 26.6541 35.2968 21.0227 37.2488C19.8779 37.6223 18.671 36.9827 18.2764 35.8758C17.8818 34.7688 18.5582 33.6015 19.703 33.228C26.3734 30.9937 38.9393 32.0168 47.3582 36.9152C48.4294 37.5558 48.7382 38.9798 48.4582 39.5907ZM48.6162 31.8067C40.5949 26.2232 25.0349 25.4432 19.1341 27.3203C17.7757 27.7635 16.3731 26.9483 15.9102 25.6378C15.4474 24.3273 16.2994 22.9847 17.6578 22.5415C24.6628 20.3072 41.6406 21.2302 50.8366 27.6718C52.001 28.4518 52.2502 30.0887 51.435 31.2057C50.8349 31.9483 49.5428 32.2099 48.6162 31.8067Z" fill="url(#paint0_linear_1_2)"/>
<defs>
<linearGradient id="paint0_linear_1_2" x1="0" y1="0" x2="64" y2="64" gradientUnits="userSpaceOnUse">
<stop stop-color="#D83F87"/>
<stop offset="1" stop-color="#A03E99"/>
</linearGradient>
</defs>
</svg>